HIERARCHY
ROOT Hips
{
	OFFSET 0.000000 0.000000 0.000000
	CHANNELS 6 Xposition Yposition Zposition Zrotation Yrotation Xrotation 
	JOINT LHipJoint
	{
		OFFSET 0.000000 0.000000 0.000000
		CHANNELS 3 Zrotation Yrotation Xrotation
		JOINT LeftUpLeg
		{
			OFFSET 1.363060 -1.794630 0.839290
			CHANNELS 3 Zrotation Yrotation Xrotation
			JOINT LeftLeg
			{
				OFFSET 2.448110 -6.726130 0.000000
				CHANNELS 3 Zrotation Yrotation Xrotation
				JOINT LeftFoot
				{
					OFFSET 2.562200 -7.039590 0.000000
					CHANNELS 3 Zrotation Yrotation Xrotation
					JOINT LeftToeBase
					{
						OFFSET 0.157640 -0.433110 2.322550
						CHANNELS 3 Zrotation Yrotation Xrotation
						End Site
						{
							OFFSET 0.000000 0.000000 0.000000
						}
					}
				}
			}
		}
	}
	JOINT RHipJoint
	{
		OFFSET 0.000000 0.000000 0.000000
		CHANNELS 3 Zrotation Yrotation Xrotation
		JOINT RightUpLeg
		{
			OFFSET -1.305520 -1.794630 0.839290
			CHANNELS 3 Zrotation Yrotation Xrotation
			JOINT RightLeg
			{
				OFFSET -2.542530 -6.985550 0.000000
				CHANNELS 3 Zrotation Yrotation Xrotation
				JOINT RightFoot
				{
					OFFSET -2.568260 -7.056230 0.000000
					CHANNELS 3 Zrotation Yrotation Xrotation
					JOINT RightToeBase
					{
						OFFSET -0.164730 -0.452590 2.363150
						CHANNELS 3 Zrotation Yrotation Xrotation
						End Site
						{
							OFFSET 0.000000 0.000000 0.000000
						}
					}
				}
			}
		}
	}
	JOINT LowerBack
	{
		OFFSET 0.000000 0.000000 0.000000
		CHANNELS 3 Zrotation Yrotation Xrotation
		JOINT Spine
		{
			OFFSET 0.028270 2.035590 -0.193380
			CHANNELS 3 Zrotation Yrotation Xrotation
			JOINT Spine1
			{
				OFFSET 0.056720 2.048850 -0.042750
				CHANNELS 3 Zrotation Yrotation Xrotation
				JOINT Neck
				{
					OFFSET 0.000000 0.000000 0.000000
					CHANNELS 3 Zrotation Yrotation Xrotation
					JOINT Neck1
					{
						OFFSET -0.054170 1.746240 0.172020
						CHANNELS 3 Zrotation Yrotation Xrotation
						JOINT Head
						{
							OFFSET 0.104070 1.761360 -0.123970
							CHANNELS 3 Zrotation Yrotation Xrotation
							End Site
							{
								OFFSET 0.000000 0.000000 0.000000
							}
						}
					}
				}
				JOINT LeftShoulder
				{
					OFFSET 0.000000 0.000000 0.000000
					CHANNELS 3 Zrotation Yrotation Xrotation
					JOINT LeftArm
					{
						OFFSET 3.362410 1.200890 -0.311210
						CHANNELS 3 Zrotation Yrotation Xrotation
						JOINT LeftForeArm
						{
							OFFSET 4.983000 -0.000000 -0.000000
							CHANNELS 3 Zrotation Yrotation Xrotation
							JOINT LeftHand
							{
								OFFSET 3.483560 -0.000000 -0.000000
								CHANNELS 3 Zrotation Yrotation Xrotation
								JOINT LeftFingerBase
								{
									OFFSET 0.000000 0.000000 0.000000
									CHANNELS 3 Zrotation Yrotation Xrotation
									JOINT LeftHandIndex1
									{
										OFFSET 0.715260 -0.000000 -0.000000
										CHANNELS 3 Zrotation Yrotation Xrotation
										End Site
										{
											OFFSET 0.000000 0.000000 0.000000
										}
									}
								}
								JOINT LThumb
								{
									OFFSET 0.000000 0.000000 0.000000
									CHANNELS 3 Zrotation Yrotation Xrotation
									End Site
									{
										OFFSET 0.000000 0.000000 0.000000
									}
								}
							}
						}
					}
				}
				JOINT RightShoulder
				{
					OFFSET 0.000000 0.000000 0.000000
					CHANNELS 3 Zrotation Yrotation Xrotation
					JOINT RightArm
					{
						OFFSET -3.136600 1.374050 -0.404650
						CHANNELS 3 Zrotation Yrotation Xrotation
						JOINT RightForeArm
						{
							OFFSET -5.241900 -0.000000 -0.000000
							CHANNELS 3 Zrotation Yrotation Xrotation
							JOINT RightHand
							{
								OFFSET -3.444170 -0.000000 -0.000000
								CHANNELS 3 Zrotation Yrotation Xrotation
								JOINT RightFingerBase
								{
									OFFSET 0.000000 0.000000 0.000000
									CHANNELS 3 Zrotation Yrotation Xrotation
									JOINT RightHandIndex1
									{
										OFFSET -0.622530 -0.000000 -0.000000
										CHANNELS 3 Zrotation Yrotation Xrotation
										End Site
										{
											OFFSET 0.000000 0.000000 0.000000
										}
									}
								}
								JOINT RThumb
								{
									OFFSET 0.000000 0.000000 0.000000
									CHANNELS 3 Zrotation Yrotation Xrotation
									End Site
									{
										OFFSET 0.000000 0.000000 0.000000
									}
								}
							}
						}
					}
				}
			}
		}
	}
}
MOTION
Frames: 4
Frame Time: 0.008333
-0.955327 17.831181 -1.205615 -56.424099 86.213296 -41.896212 -10.321977 0.600335 4.722561 -10.276193 -9.169099 -29.381707 -1.501121 -0.596925 8.942183 1.144021 8.680376 5.767449 2.580399 -0.000000 -25.701900 9.037214 -4.475447 -0.242407 7.714960 -7.030314 2.447209 1.972534 -1.095430 10.424259 -0.037681 0.211713 16.598487 -0.233600 0.000001 -58.438800 0.713435 5.051582 -5.309421 -1.662082 4.647211 -4.903774 -9.407085 4.740365 -3.227390 11.162725 -3.229821 -5.961361 -2.873227 -0.254311 0.493076 0.000000 0.000000 0.000000 7.181032 20.699277 -1.114571 -53.729112 35.530236 24.437354 -179.996225 -65.868535 179.961253 21.462785 -20.805600 -4.181694 -0.448857 0.618841 0.000000 0.000000 0.000000 0.000000 0.000000 0.000000 0.000000 4.753252 8.089299 -3.016819 87.164636 20.187813 35.134354 179.626282 62.851297 179.898945 -11.969647 32.706866 -3.806609 0.308829 -1.669132 -0.000000 0.000000 0.000000 0.000000 0.000000 0.000000 0.000000 
-0.737960 17.834125 -1.252829 -62.094622 86.493672 -47.877188 -10.335304 0.719537 4.622417 -11.234567 -8.407126 -29.097823 -1.579890 -0.573001 8.714392 1.108953 8.649461 6.558569 2.695600 0.000000 -25.674100 9.070679 -4.483413 -0.402124 7.413926 -7.738031 2.551750 1.766946 -1.194059 12.047443 -0.330430 -2.071644 15.738244 -1.115700 -0.000000 -56.827300 0.756953 5.014270 -5.115648 -1.657534 4.618549 -4.866129 -9.388537 4.716870 -3.197846 11.075198 -3.274720 -6.056795 -2.881726 -0.253791 0.467096 0.000000 0.000000 0.000000 7.093751 21.053507 -1.117338 -53.768728 36.254732 23.554808 -179.989568 -65.183606 179.961440 21.511157 -20.946695 -4.220878 -0.451667 0.623603 0.000000 0.000000 0.000000 0.000000 0.000000 0.000000 0.000000 4.760167 8.132431 -3.068143 87.518959 20.416036 35.435318 179.572275 63.055043 179.903172 -11.661055 32.468265 -3.680117 0.304116 -1.660390 -0.000000 0.000000 0.000000 0.000000 0.000000 0.000000 0.000000 
-0.523219 17.826073 -1.301038 -69.203789 86.758829 -55.330033 -10.334215 0.839033 4.514098 -12.181556 -7.689974 -28.811975 -1.635925 -0.530056 8.931617 1.113379 8.758653 6.918760 2.778000 -0.000001 -25.240200 9.120245 -4.467296 -0.587192 7.048937 -8.551172 2.548875 1.559596 -1.295951 13.937322 -0.639758 -4.298120 14.547408 -1.906600 0.000000 -54.976900 0.807582 4.956323 -4.885712 -1.652724 4.570590 -4.818189 -9.373885 4.675937 -3.162871 11.001808 -3.360540 -6.159486 -2.903015 -0.254111 0.438360 0.000000 0.000000 0.000000 6.994076 21.341866 -1.120565 -53.965695 36.843143 22.659845 -179.989311 -64.569474 179.961050 21.568257 -21.078453 -4.260155 -0.453836 0.628962 0.000000 0.000000 0.000000 0.000000 0.000000 0.000000 0.000000 4.850551 8.125031 -3.102233 87.798271 20.568237 35.686667 179.518802 63.281300 179.907192 -11.377427 32.249471 -3.565144 0.299726 -1.651172 -0.000000 0.000000 0.000000 0.000000 0.000000 0.000000 0.000000 
-0.311106 17.806990 -1.350346 -77.993591 86.975051 -64.491459 -10.319450 0.952435 4.402199 -13.070326 -7.060059 -28.503360 -1.668600 -0.470489 9.543547 1.147405 8.957302 6.863733 2.816800 0.000000 -24.474800 9.185428 -4.431848 -0.795871 6.617968 -9.451742 2.450513 1.359391 -1.403169 16.047564 -0.950391 -6.355240 13.126335 -2.541100 0.000000 -52.960200 0.874334 4.885386 -4.623197 -1.645606 4.509884 -4.760485 -9.361357 4.623991 -3.124183 10.935485 -3.482551 -6.267149 -2.934523 -0.255108 0.407528 0.000000 0.000000 0.000000 6.883291 21.564308 -1.125144 -54.321255 37.264505 21.778015 -179.995839 -64.030458 179.960043 21.627813 -21.206978 -4.299424 -0.455328 0.635310 0.000000 0.000000 0.000000 0.000000 0.000000 0.000000 0.000000 4.999398 8.070691 -3.122221 88.006517 20.628509 35.874999 179.471814 63.525769 179.910679 -11.136068 32.058635 -3.467688 0.295755 -1.641565 -0.000000 0.000000 0.000000 0.000000 0.000000 0.000000 0.000000 
